<svg id="Layer_1" data-name="Layer 1" xmlns="http://www.w3.org/2000/svg" viewBox="760 750 6528.88 780">
  <defs>
    <style>.xex7{fill:#fff}</style>
  </defs>
  <path class="xex7" d="M2793.45 767.49h232.82v155.55h-232.82zM3071.26 767.49h233.81v155.55h-233.81zM1249.74 1154.88L1139.2 1152c-81.19-2.94-97.82-17.61-97.82-39.13v-1c0-23.48 16.63-36.2 102.71-36.2h1c94.89 0 103.7 31.31 105.66 48.92h266.08v-6.85c0-84.13-62.61-163.36-345.33-163.36h-51.84c-290.54 0-345.33 77.27-345.33 163.36v5.87c0 78.26 50.87 158.48 272 165.33l111.51 2.93c87.07 2 100.77 17.61 100.77 43.05v1.95c0 22.5-14.68 44-108.59 44h-2c-99.77 0-107.6-44-108.58-64.57h-271v6.85c0 68.48 34.24 186.85 351.2 186.85h53.8c308.15 0 362.93-85.11 362.93-181v-6.85c0-103.68-48.91-160.42-286.63-167.27zM1909.1 815.43H1645V969h-100.79v161.41H1645v215.22c0 99.78 48.91 149.67 139.89 149.67h225V1332h-56.74c-38.15 0-44-13.7-44-46v-155.57h100.76V969H1909.1zM2331.69 1094.23V969h-264.12v526.3h266.08v-203.46c0-63.59 40.11-104.67 144.78-104.67 55.77 0 86.1 7.83 99.79 10.76V957.28c-151.63 0-215.22 77.28-246.53 136.95zM3086.92 954.35h-74.35c-337.5 0-398.15 155.54-398.15 267.06v15.64c0 113.49 61.63 272.94 399.13 272.94H3086c354.12 0 398.14-160.43 398.14-272v-17.61c-.05-109.51-47.01-266.03-397.22-266.03zm128.15 275.86c0 55.76-33.26 130.11-164.35 130.11h-1c-132.07 0-165.33-73.37-165.33-130.11v-3.91c0-57.72 34.24-123.27 165.33-123.27h1c130.11 0 164.35 66.52 164.35 123.27zM5574.16 957.28h-6.84c-146.74 0-234.78 69.45-275.86 108.58-30.34-57.72-95.88-108.58-217.18-108.58h-5.87c-158.48 0-237.72 81.2-261.2 105.65l-14.13 14c-28.4-62.45-95-119.6-226.07-119.6h-6.84c-146.74 0-234.78 69.45-275.87 108.58-30.33-57.72-95.87-108.58-217.18-108.58h-5.87c-158.47 0-237.71 81.2-261.19 105.65V969h-264.13v526.3H3802v-245.52c0-71.42 46-127.18 129.12-127.18 80.22 0 108.6 51.85 108.6 120.33v252.39h267.05v-245.54c0-71.42 46-127.18 129.14-127.18 70 0 100.53 39.52 107.15 95.12v277.6h267.54v-265.88c8-61.36 52.65-106.84 127.7-106.84 80.22 0 108.59 51.85 108.59 120.33v252.39H5314v-245.54c0-71.42 46-127.18 129.14-127.18 80.21 0 108.58 51.85 108.58 120.33v252.39h266.09v-338.48c-.05-82.17-55.81-199.56-243.65-199.56zM6431.31 1035.54c-24.45-22.5-98.8-76.3-248.47-76.3h-17.61c-208.37 0-300.32 128.14-300.32 259.23V1239c0 138.92 92.93 266.09 309.13 266.09h15.65c150.65 0 224-64.56 242.6-87.06v77.28h265.11V969h-266.09zm0 196.62c0 57.72-52.81 124.25-152.6 124.25h-4.89c-99.78 0-138.92-68.48-138.92-124.25v-4.89c0-57.72 33.27-121.3 137-121.3h4.89c99.79 0 154.56 63.58 154.56 121.3zM7033.92 1094.23V969h-264.13v526.3h266.09v-203.46c0-63.59 40.1-104.67 144.78-104.67 55.76 0 86.09 7.83 99.78 10.76V957.28c-151.63 0-215.22 77.28-246.52 136.95z"></path>
</svg>
